<?xml version="1.0" encoding="utf-8"?>
<!-- Generator: Adobe Illustrator 22.1.0, SVG Export Plug-In . SVG Version: 6.00 Build 0)  -->
<svg version="1.1" id="Capa_1" xmlns="http://www.w3.org/2000/svg" xmlns:xlink="http://www.w3.org/1999/xlink" x="0px" y="0px"
	 viewBox="0 0 1920 1080" style="enable-background:new 0 0 1920 1080;" xml:space="preserve">
<g>
	<path d="M634.3,749.5v-21.6h21.4v21.6H634.3z M634.3,773.8v-21.4h21.4v21.4H634.3z M658.5,749.5v-21.6h21.6v21.6H658.5z
		 M658.5,773.8v-21.4h21.6v21.4H658.5z M683,749.5v-21.6h21.4v21.6H683z M683,773.8v-21.4h21.4v21.4H683z M707.3,749.5v-21.6h21.4
		v21.6H707.3z M707.3,773.8v-21.4h21.4v21.4H707.3z M731.6,749.5v-21.6h21.6v21.6H731.6z M731.6,773.8v-21.4h21.6v21.4H731.6z
		 M780.3,749.5v-21.6h21.6v21.6H780.3z M780.3,773.8v-21.4h21.6v21.4H780.3z"/>
</g>
</svg>
