<svg id="Capa_1" data-name="Capa 1" xmlns="http://www.w3.org/2000/svg" viewBox="0 0 167.64 167.64"><title>v</title><path d="M506.16,506.94H484.54V485.32h21.62Zm0,24.25H484.54V509.82h21.62Zm24.25-24.25H509V485.32h21.37Zm0,24.25H509V509.82h21.37Zm0,24.5H509V534.08h21.37Zm0,24.26H509V558.57h21.37Zm0,24.26H509V582.83h21.37Zm24.5-48.52H533.29V534.08h21.62Zm0,24.26H533.29V558.57h21.62Zm0,24.26H533.29V582.83h21.62Zm0,24.49H533.29V607.09h21.62Zm0,24.26H533.29V631.58h21.62Zm24.26-24.26H557.79V607.09h21.38Zm0,24.26H557.79V631.58h21.38Zm24.25-73H582.05V558.57h21.37Zm0,24.26H582.05V582.83h21.37Zm0,24.49H582.05V607.09h21.37Zm0,24.26H582.05V631.58h21.37Zm24.5-146H606.31V485.32h21.61Zm0,24.25H606.31V509.82h21.61Zm0,24.5H606.31V534.08h21.61Zm0,24.26H606.31V558.57h21.61Zm24.26-73H630.8V485.32h21.38Zm0,24.25H630.8V509.82h21.38Z" transform="translate(-484.54 -485.32)"/></svg>