<svg id="Capa_1" data-name="Capa 1" xmlns="http://www.w3.org/2000/svg" viewBox="0 0 143.38 167.64"><title>x</title><path d="M497.36,302.94H475.74V281.32h21.62Zm0,24.25H475.74V305.82h21.62Zm0,97.51H475.74V403.09h21.62Zm0,24.26H475.74V427.58h21.62Zm24.25-146H500.24V281.32h21.37Zm0,24.25H500.24V305.82h21.37Zm0,24.5H500.24V330.08h21.37Zm0,48.52H500.24V378.83h21.37Zm0,24.49H500.24V403.09h21.37Zm24.5-97.51H524.5V305.82h21.61Zm0,24.5H524.5V330.08h21.61Zm0,24.26H524.5V354.57h21.61Zm0,24.26H524.5V378.83h21.61Zm24.26-48.52H549V330.08h21.38Zm0,24.26H549V354.57h21.38Zm0,24.26H549V378.83h21.38Zm0,24.49H549V403.09h21.38Zm24.25-97.51H573.25V305.82h21.37Zm0,24.5H573.25V330.08h21.37Zm0,48.52H573.25V378.83h21.37Zm0,24.49H573.25V403.09h21.37Zm0,24.26H573.25V427.58h21.37Zm24.5-146H597.51V281.32h21.61Zm0,24.25H597.51V305.82h21.61Zm0,97.51H597.51V403.09h21.61Zm0,24.26H597.51V427.58h21.61Z" transform="translate(-475.74 -281.32)"/></svg>