<?xml version="1.0" encoding="utf-8"?>
<!DOCTYPE svg PUBLIC "-//W3C//DTD SVG 1.1//EN" "http://www.w3.org/Graphics/SVG/1.1/DTD/svg11.dtd">
<svg version="1.1" id="Layer_1" xmlns="http://www.w3.org/2000/svg" xmlns:xlink="http://www.w3.org/1999/xlink" x="0px" y="0px"
width="435px" height="435px" viewBox="0 0 435 435" enable-background="new 0 0 435 435" xml:space="preserve">
<rect x="0" y="0" width="435" height="435" fill="rgb(255,255,255)" /><g transform="translate(30,30)"><g transform="translate(120,0) scale(0.15,0.15)"><g transform="" style="fill: rgb(0, 0, 0);">
<g>
	<path d="M100,34.375V0H34.375C24.87,0,16.764,3.353,10.059,10.059S0,24.87,0,34.375V100h100V34.375z"/>
</g>
</g></g><g transform="translate(135,0) scale(0.15,0.15)"><g transform="" style="fill: rgb(0, 0, 0);">
<g>
	<path d="M100,34.375c0-9.505-3.354-17.611-10.059-24.316S75.131,0,65.625,0H0v100h100V34.375z"/>
</g>
</g></g><g transform="translate(195,0) scale(0.15,0.15)"><g transform="" style="fill: rgb(0, 0, 0);">
<g>
	<path d="M95.338,83.975C120.428,37.136,29.47-30.196,4.645,16.13C-20.399,62.878,70.625,130.076,95.338,83.975"/>
</g>
</g></g><g transform="translate(120,15) scale(0.15,0.15)"><g transform="" style="fill: rgb(0, 0, 0);">
<rect width="100" height="100"/>
</g></g><g transform="translate(135,15) scale(0.15,0.15)"><g transform="" style="fill: rgb(0, 0, 0);">
<rect width="100" height="100"/>
</g></g><g transform="translate(150,15) scale(0.15,0.15)"><g transform="" style="fill: rgb(0, 0, 0);">
<rect width="100" height="100"/>
</g></g><g transform="translate(165,15) scale(0.15,0.15)"><g transform="" style="fill: rgb(0, 0, 0);">
<path d="M26.574,99.999C14.89,99.999,0,100,0,100s0-34.008,0.001-49.953c-0.001-12.453,0-49.953,0-49.953h25.068
	c0,0,64.501-2.101,72.268,13.486C109.354,37.695,54.264,99.999,26.574,99.999z"/>
</g></g><g transform="translate(210,15) scale(0.15,0.15)"><g transform="" style="fill: rgb(0, 0, 0);">
<path d="M99.999,73.426C99.999,85.11,100,100,100,100s-34.008,0-49.953-0.001c-12.452,0.001-49.952,0-49.952,0V74.931
	c0,0-2.101-65.501,13.486-73.267C37.695-10.353,99.999,45.737,99.999,73.426z"/>
</g></g><g transform="translate(120,30) scale(0.15,0.15)"><g transform="" style="fill: rgb(0, 0, 0);">
<g>
	<path d="M100,0H0v65.625c0,9.506,3.353,17.611,10.059,24.316S24.87,100,34.375,100H100V0z"/>
</g>
</g></g><g transform="translate(135,30) scale(0.15,0.15)"><g transform="" style="fill: rgb(0, 0, 0);">
<rect width="100" height="100"/>
</g></g><g transform="translate(195,30) scale(0.15,0.15)"><g transform="" style="fill: rgb(0, 0, 0);">
<g>
	<path d="M100,34.375V0H34.375C24.87,0,16.764,3.353,10.059,10.059S0,24.87,0,34.375V100h100V34.375z"/>
</g>
</g></g><g transform="translate(210,30) scale(0.15,0.15)"><g transform="" style="fill: rgb(0, 0, 0);">
<g>
	<path d="M100,0H0v100h65.625c9.506,0,17.611-3.354,24.316-10.059S100,75.131,100,65.625V0z"/>
</g>
</g></g><g transform="translate(135,45) scale(0.15,0.15)"><g transform="" style="fill: rgb(0, 0, 0);">
<rect width="100" height="100"/>
</g></g><g transform="translate(150,45) scale(0.15,0.15)"><g transform="" style="fill: rgb(0, 0, 0);">
<rect width="100" height="100"/>
</g></g><g transform="translate(165,45) scale(0.15,0.15)"><g transform="" style="fill: rgb(0, 0, 0);">
<path d="M26.574,99.999C14.89,99.999,0,100,0,100s0-34.008,0.001-49.953c-0.001-12.453,0-49.953,0-49.953h25.068
	c0,0,64.501-2.101,72.268,13.486C109.354,37.695,54.264,99.999,26.574,99.999z"/>
</g></g><g transform="translate(195,45) scale(0.15,0.15)"><g transform="" style="fill: rgb(0, 0, 0);">
<path d="M0.001,25.574C0.001,13.89,0-1,0-1s34.008,0,49.953,0.001c12.452-0.001,49.952,0,49.952,0v25.068
	c0,0,2.101,65.501-13.486,73.267C62.305,109.353,0.001,53.264,0.001,25.574z"/>
</g></g><g transform="translate(225,45) scale(0.15,0.15)"><g transform="" style="fill: rgb(0, 0, 0);">
<path d="M73.425,0.001C85.11,0.001,100,0,100,0s0,34.008-0.001,49.953c0.001,12.452,0,49.952,0,49.952H74.931
	c0,0-65.501,2.1-73.268-13.486C-10.352,62.305,45.736,0.001,73.425,0.001z"/>
</g></g><g transform="translate(240,45) scale(0.15,0.15)"><g transform="" style="fill: rgb(0, 0, 0);">
<path d="M26.574,99.999C14.89,99.999,0,100,0,100s0-34.008,0.001-49.953c-0.001-12.453,0-49.953,0-49.953h25.068
	c0,0,64.501-2.101,72.268,13.486C109.354,37.695,54.264,99.999,26.574,99.999z"/>
</g></g><g transform="translate(120,60) scale(0.15,0.15)"><g transform="" style="fill: rgb(0, 0, 0);">
<path d="M73.425,0.001C85.11,0.001,100,0,100,0s0,34.008-0.001,49.953c0.001,12.452,0,49.952,0,49.952H74.931
	c0,0-65.501,2.1-73.268-13.486C-10.352,62.305,45.736,0.001,73.425,0.001z"/>
</g></g><g transform="translate(135,60) scale(0.15,0.15)"><g transform="" style="fill: rgb(0, 0, 0);">
<rect width="100" height="100"/>
</g></g><g transform="translate(150,60) scale(0.15,0.15)"><g transform="" style="fill: rgb(0, 0, 0);">
<g>
	<path d="M100,0H0v100h65.625c9.506,0,17.611-3.354,24.316-10.059S100,75.131,100,65.625V0z"/>
</g>
</g></g><g transform="translate(135,75) scale(0.15,0.15)"><g transform="" style="fill: rgb(0, 0, 0);">
<path d="M0.001,25.574C0.001,13.89,0-1,0-1s34.008,0,49.953,0.001c12.452-0.001,49.952,0,49.952,0v25.068
	c0,0,2.101,65.501-13.486,73.267C62.305,109.353,0.001,53.264,0.001,25.574z"/>
</g></g><g transform="translate(240,75) scale(0.15,0.15)"><g transform="" style="fill: rgb(0, 0, 0);">
<path d="M99.999,73.426C99.999,85.11,100,100,100,100s-34.008,0-49.953-0.001c-12.452,0.001-49.952,0-49.952,0V74.931
	c0,0-2.101-65.501,13.486-73.267C37.695-10.353,99.999,45.737,99.999,73.426z"/>
</g></g><g transform="translate(120,90) scale(0.15,0.15)"><g transform="" style="fill: rgb(0, 0, 0);">
<g>
	<path d="M95.338,83.975C120.428,37.136,29.47-30.196,4.645,16.13C-20.399,62.878,70.625,130.076,95.338,83.975"/>
</g>
</g></g><g transform="translate(150,90) scale(0.15,0.15)"><g transform="" style="fill: rgb(0, 0, 0);">
<g>
	<path d="M95.338,83.975C120.428,37.136,29.47-30.196,4.645,16.13C-20.399,62.878,70.625,130.076,95.338,83.975"/>
</g>
</g></g><g transform="translate(180,90) scale(0.15,0.15)"><g transform="" style="fill: rgb(0, 0, 0);">
<path d="M99.999,73.426C99.999,85.11,100,100,100,100s-34.008,0-49.953-0.001c-12.452,0.001-49.952,0-49.952,0V74.931
	c0,0-2.101-65.501,13.486-73.267C37.695-10.353,99.999,45.737,99.999,73.426z"/>
</g></g><g transform="translate(210,90) scale(0.15,0.15)"><g transform="" style="fill: rgb(0, 0, 0);">
<path d="M99.999,73.426C99.999,85.11,100,100,100,100s-34.008,0-49.953-0.001c-12.452,0.001-49.952,0-49.952,0V74.931
	c0,0-2.101-65.501,13.486-73.267C37.695-10.353,99.999,45.737,99.999,73.426z"/>
</g></g><g transform="translate(240,90) scale(0.15,0.15)"><g transform="" style="fill: rgb(0, 0, 0);">
<path d="M0.001,25.574C0.001,13.89,0-1,0-1s34.008,0,49.953,0.001c12.452-0.001,49.952,0,49.952,0v25.068
	c0,0,2.101,65.501-13.486,73.267C62.305,109.353,0.001,53.264,0.001,25.574z"/>
</g></g><g transform="translate(180,105) scale(0.15,0.15)"><g transform="" style="fill: rgb(0, 0, 0);">
<g>
	<path d="M100,0H0v65.625c0,9.506,3.353,17.611,10.059,24.316S24.87,100,34.375,100H100V0z"/>
</g>
</g></g><g transform="translate(195,105) scale(0.15,0.15)"><g transform="" style="fill: rgb(0, 0, 0);">
<rect width="100" height="100"/>
</g></g><g transform="translate(210,105) scale(0.15,0.15)"><g transform="" style="fill: rgb(0, 0, 0);">
<rect width="100" height="100"/>
</g></g><g transform="translate(225,105) scale(0.15,0.15)"><g transform="" style="fill: rgb(0, 0, 0);">
<path d="M26.574,99.999C14.89,99.999,0,100,0,100s0-34.008,0.001-49.953c-0.001-12.453,0-49.953,0-49.953h25.068
	c0,0,64.501-2.101,72.268,13.486C109.354,37.695,54.264,99.999,26.574,99.999z"/>
</g></g><g transform="translate(0,120) scale(0.15,0.15)"><g transform="" style="fill: rgb(0, 0, 0);">
<g>
	<path d="M95.338,83.975C120.428,37.136,29.47-30.196,4.645,16.13C-20.399,62.878,70.625,130.076,95.338,83.975"/>
</g>
</g></g><g transform="translate(45,120) scale(0.15,0.15)"><g transform="" style="fill: rgb(0, 0, 0);">
<g>
	<path d="M100,34.375V0H34.375C24.87,0,16.764,3.353,10.059,10.059S0,24.87,0,34.375V100h100V34.375z"/>
</g>
</g></g><g transform="translate(60,120) scale(0.15,0.15)"><g transform="" style="fill: rgb(0, 0, 0);">
<rect width="100" height="100"/>
</g></g><g transform="translate(75,120) scale(0.15,0.15)"><g transform="" style="fill: rgb(0, 0, 0);">
<rect width="100" height="100"/>
</g></g><g transform="translate(90,120) scale(0.15,0.15)"><g transform="" style="fill: rgb(0, 0, 0);">
<rect width="100" height="100"/>
</g></g><g transform="translate(105,120) scale(0.15,0.15)"><g transform="" style="fill: rgb(0, 0, 0);">
<rect width="100" height="100"/>
</g></g><g transform="translate(120,120) scale(0.15,0.15)"><g transform="" style="fill: rgb(0, 0, 0);">
<rect width="100" height="100"/>
</g></g><g transform="translate(135,120) scale(0.15,0.15)"><g transform="" style="fill: rgb(0, 0, 0);">
<path d="M26.574,99.999C14.89,99.999,0,100,0,100s0-34.008,0.001-49.953c-0.001-12.453,0-49.953,0-49.953h25.068
	c0,0,64.501-2.101,72.268,13.486C109.354,37.695,54.264,99.999,26.574,99.999z"/>
</g></g><g transform="translate(210,120) scale(0.15,0.15)"><g transform="" style="fill: rgb(0, 0, 0);">
<rect width="100" height="100"/>
</g></g><g transform="translate(255,120) scale(0.15,0.15)"><g transform="" style="fill: rgb(0, 0, 0);">
<path d="M99.999,73.426C99.999,85.11,100,100,100,100s-34.008,0-49.953-0.001c-12.452,0.001-49.952,0-49.952,0V74.931
	c0,0-2.101-65.501,13.486-73.267C37.695-10.353,99.999,45.737,99.999,73.426z"/>
</g></g><g transform="translate(300,120) scale(0.15,0.15)"><g transform="" style="fill: rgb(0, 0, 0);">
<path d="M99.999,73.426C99.999,85.11,100,100,100,100s-34.008,0-49.953-0.001c-12.452,0.001-49.952,0-49.952,0V74.931
	c0,0-2.101-65.501,13.486-73.267C37.695-10.353,99.999,45.737,99.999,73.426z"/>
</g></g><g transform="translate(330,120) scale(0.15,0.15)"><g transform="" style="fill: rgb(0, 0, 0);">
<g>
	<path d="M100,34.375V0H34.375C24.87,0,16.764,3.353,10.059,10.059S0,24.87,0,34.375V100h100V34.375z"/>
</g>
</g></g><g transform="translate(345,120) scale(0.15,0.15)"><g transform="" style="fill: rgb(0, 0, 0);">
<rect width="100" height="100"/>
</g></g><g transform="translate(360,120) scale(0.15,0.15)"><g transform="" style="fill: rgb(0, 0, 0);">
<path d="M26.574,99.999C14.89,99.999,0,100,0,100s0-34.008,0.001-49.953c-0.001-12.453,0-49.953,0-49.953h25.068
	c0,0,64.501-2.101,72.268,13.486C109.354,37.695,54.264,99.999,26.574,99.999z"/>
</g></g><g transform="translate(30,135) scale(0.15,0.15)"><g transform="" style="fill: rgb(0, 0, 0);">
<path d="M73.425,0.001C85.11,0.001,100,0,100,0s0,34.008-0.001,49.953c0.001,12.452,0,49.952,0,49.952H74.931
	c0,0-65.501,2.1-73.268-13.486C-10.352,62.305,45.736,0.001,73.425,0.001z"/>
</g></g><g transform="translate(45,135) scale(0.15,0.15)"><g transform="" style="fill: rgb(0, 0, 0);">
<rect width="100" height="100"/>
</g></g><g transform="translate(60,135) scale(0.15,0.15)"><g transform="" style="fill: rgb(0, 0, 0);">
<rect width="100" height="100"/>
</g></g><g transform="translate(150,135) scale(0.15,0.15)"><g transform="" style="fill: rgb(0, 0, 0);">
<path d="M99.999,73.426C99.999,85.11,100,100,100,100s-34.008,0-49.953-0.001c-12.452,0.001-49.952,0-49.952,0V74.931
	c0,0-2.101-65.501,13.486-73.267C37.695-10.353,99.999,45.737,99.999,73.426z"/>
</g></g><g transform="translate(180,135) scale(0.15,0.15)"><g transform="" style="fill: rgb(0, 0, 0);">
<path d="M99.999,73.426C99.999,85.11,100,100,100,100s-34.008,0-49.953-0.001c-12.452,0.001-49.952,0-49.952,0V74.931
	c0,0-2.101-65.501,13.486-73.267C37.695-10.353,99.999,45.737,99.999,73.426z"/>
</g></g><g transform="translate(210,135) scale(0.15,0.15)"><g transform="" style="fill: rgb(0, 0, 0);">
<rect width="100" height="100"/>
</g></g><g transform="translate(225,135) scale(0.15,0.15)"><g transform="" style="fill: rgb(0, 0, 0);">
<g>
	<path d="M100,34.375c0-9.505-3.354-17.611-10.059-24.316S75.131,0,65.625,0H0v100h100V34.375z"/>
</g>
</g></g><g transform="translate(255,135) scale(0.15,0.15)"><g transform="" style="fill: rgb(0, 0, 0);">
<path d="M0.001,25.574C0.001,13.89,0-1,0-1s34.008,0,49.953,0.001c12.452-0.001,49.952,0,49.952,0v25.068
	c0,0,2.101,65.501-13.486,73.267C62.305,109.353,0.001,53.264,0.001,25.574z"/>
</g></g><g transform="translate(285,135) scale(0.15,0.15)"><g transform="" style="fill: rgb(0, 0, 0);">
<g>
	<path d="M100,34.375V0H34.375C24.87,0,16.764,3.353,10.059,10.059S0,24.87,0,34.375V100h100V34.375z"/>
</g>
</g></g><g transform="translate(300,135) scale(0.15,0.15)"><g transform="" style="fill: rgb(0, 0, 0);">
<rect width="100" height="100"/>
</g></g><g transform="translate(315,135) scale(0.15,0.15)"><g transform="" style="fill: rgb(0, 0, 0);">
<rect width="100" height="100"/>
</g></g><g transform="translate(330,135) scale(0.15,0.15)"><g transform="" style="fill: rgb(0, 0, 0);">
<rect width="100" height="100"/>
</g></g><g transform="translate(345,135) scale(0.15,0.15)"><g transform="" style="fill: rgb(0, 0, 0);">
<g>
	<path d="M100,0H0v100h65.625c9.506,0,17.611-3.354,24.316-10.059S100,75.131,100,65.625V0z"/>
</g>
</g></g><g transform="translate(15,150) scale(0.15,0.15)"><g transform="" style="fill: rgb(0, 0, 0);">
<path d="M99.999,73.426C99.999,85.11,100,100,100,100s-34.008,0-49.953-0.001c-12.452,0.001-49.952,0-49.952,0V74.931
	c0,0-2.101-65.501,13.486-73.267C37.695-10.353,99.999,45.737,99.999,73.426z"/>
</g></g><g transform="translate(45,150) scale(0.15,0.15)"><g transform="" style="fill: rgb(0, 0, 0);">
<g>
	<path d="M100,0H0v65.625c0,9.506,3.353,17.611,10.059,24.316S24.87,100,34.375,100H100V0z"/>
</g>
</g></g><g transform="translate(60,150) scale(0.15,0.15)"><g transform="" style="fill: rgb(0, 0, 0);">
<rect width="100" height="100"/>
</g></g><g transform="translate(75,150) scale(0.15,0.15)"><g transform="" style="fill: rgb(0, 0, 0);">
<rect width="100" height="100"/>
</g></g><g transform="translate(90,150) scale(0.15,0.15)"><g transform="" style="fill: rgb(0, 0, 0);">
<path d="M26.574,99.999C14.89,99.999,0,100,0,100s0-34.008,0.001-49.953c-0.001-12.453,0-49.953,0-49.953h25.068
	c0,0,64.501-2.101,72.268,13.486C109.354,37.695,54.264,99.999,26.574,99.999z"/>
</g></g><g transform="translate(120,150) scale(0.15,0.15)"><g transform="" style="fill: rgb(0, 0, 0);">
<path d="M99.999,73.426C99.999,85.11,100,100,100,100s-34.008,0-49.953-0.001c-12.452,0.001-49.952,0-49.952,0V74.931
	c0,0-2.101-65.501,13.486-73.267C37.695-10.353,99.999,45.737,99.999,73.426z"/>
</g></g><g transform="translate(150,150) scale(0.15,0.15)"><g transform="" style="fill: rgb(0, 0, 0);">
<path d="M0.001,25.574C0.001,13.89,0-1,0-1s34.008,0,49.953,0.001c12.452-0.001,49.952,0,49.952,0v25.068
	c0,0,2.101,65.501-13.486,73.267C62.305,109.353,0.001,53.264,0.001,25.574z"/>
</g></g><g transform="translate(180,150) scale(0.15,0.15)"><g transform="" style="fill: rgb(0, 0, 0);">
<rect width="100" height="100"/>
</g></g><g transform="translate(210,150) scale(0.15,0.15)"><g transform="" style="fill: rgb(0, 0, 0);">
<rect width="100" height="100"/>
</g></g><g transform="translate(225,150) scale(0.15,0.15)"><g transform="" style="fill: rgb(0, 0, 0);">
<rect width="100" height="100"/>
</g></g><g transform="translate(240,150) scale(0.15,0.15)"><g transform="" style="fill: rgb(0, 0, 0);">
<path d="M26.574,99.999C14.89,99.999,0,100,0,100s0-34.008,0.001-49.953c-0.001-12.453,0-49.953,0-49.953h25.068
	c0,0,64.501-2.101,72.268,13.486C109.354,37.695,54.264,99.999,26.574,99.999z"/>
</g></g><g transform="translate(270,150) scale(0.15,0.15)"><g transform="" style="fill: rgb(0, 0, 0);">
<path d="M73.425,0.001C85.11,0.001,100,0,100,0s0,34.008-0.001,49.953c0.001,12.452,0,49.952,0,49.952H74.931
	c0,0-65.501,2.1-73.268-13.486C-10.352,62.305,45.736,0.001,73.425,0.001z"/>
</g></g><g transform="translate(285,150) scale(0.15,0.15)"><g transform="" style="fill: rgb(0, 0, 0);">
<rect width="100" height="100"/>
</g></g><g transform="translate(315,150) scale(0.15,0.15)"><g transform="" style="fill: rgb(0, 0, 0);">
<rect width="100" height="100"/>
</g></g><g transform="translate(360,150) scale(0.15,0.15)"><g transform="" style="fill: rgb(0, 0, 0);">
<path d="M99.999,73.426C99.999,85.11,100,100,100,100s-34.008,0-49.953-0.001c-12.452,0.001-49.952,0-49.952,0V74.931
	c0,0-2.101-65.501,13.486-73.267C37.695-10.353,99.999,45.737,99.999,73.426z"/>
</g></g><g transform="translate(0,165) scale(0.15,0.15)"><g transform="" style="fill: rgb(0, 0, 0);">
<g>
	<path d="M100,34.375V0H34.375C24.87,0,16.764,3.353,10.059,10.059S0,24.87,0,34.375V100h100V34.375z"/>
</g>
</g></g><g transform="translate(15,165) scale(0.15,0.15)"><g transform="" style="fill: rgb(0, 0, 0);">
<rect width="100" height="100"/>
</g></g><g transform="translate(30,165) scale(0.15,0.15)"><g transform="" style="fill: rgb(0, 0, 0);">
<g>
	<path d="M100,34.375c0-9.505-3.354-17.611-10.059-24.316S75.131,0,65.625,0H0v100h100V34.375z"/>
</g>
</g></g><g transform="translate(75,165) scale(0.15,0.15)"><g transform="" style="fill: rgb(0, 0, 0);">
<rect width="100" height="100"/>
</g></g><g transform="translate(105,165) scale(0.15,0.15)"><g transform="" style="fill: rgb(0, 0, 0);">
<path d="M73.425,0.001C85.11,0.001,100,0,100,0s0,34.008-0.001,49.953c0.001,12.452,0,49.952,0,49.952H74.931
	c0,0-65.501,2.1-73.268-13.486C-10.352,62.305,45.736,0.001,73.425,0.001z"/>
</g></g><g transform="translate(120,165) scale(0.15,0.15)"><g transform="" style="fill: rgb(0, 0, 0);">
<rect width="100" height="100"/>
</g></g><g transform="translate(180,165) scale(0.15,0.15)"><g transform="" style="fill: rgb(0, 0, 0);">
<path d="M0.001,25.574C0.001,13.89,0-1,0-1s34.008,0,49.953,0.001c12.452-0.001,49.952,0,49.952,0v25.068
	c0,0,2.101,65.501-13.486,73.267C62.305,109.353,0.001,53.264,0.001,25.574z"/>
</g></g><g transform="translate(210,165) scale(0.15,0.15)"><g transform="" style="fill: rgb(0, 0, 0);">
<path d="M0.001,25.574C0.001,13.89,0-1,0-1s34.008,0,49.953,0.001c12.452-0.001,49.952,0,49.952,0v25.068
	c0,0,2.101,65.501-13.486,73.267C62.305,109.353,0.001,53.264,0.001,25.574z"/>
</g></g><g transform="translate(255,165) scale(0.15,0.15)"><g transform="" style="fill: rgb(0, 0, 0);">
<g>
	<path d="M95.338,83.975C120.428,37.136,29.47-30.196,4.645,16.13C-20.399,62.878,70.625,130.076,95.338,83.975"/>
</g>
</g></g><g transform="translate(285,165) scale(0.15,0.15)"><g transform="" style="fill: rgb(0, 0, 0);">
<rect width="100" height="100"/>
</g></g><g transform="translate(315,165) scale(0.15,0.15)"><g transform="" style="fill: rgb(0, 0, 0);">
<g>
	<path d="M100,0H0v65.625c0,9.506,3.353,17.611,10.059,24.316S24.87,100,34.375,100H100V0z"/>
</g>
</g></g><g transform="translate(330,165) scale(0.15,0.15)"><g transform="" style="fill: rgb(0, 0, 0);">
<rect width="100" height="100"/>
</g></g><g transform="translate(345,165) scale(0.15,0.15)"><g transform="" style="fill: rgb(0, 0, 0);">
<rect width="100" height="100"/>
</g></g><g transform="translate(360,165) scale(0.15,0.15)"><g transform="" style="fill: rgb(0, 0, 0);">
<rect width="100" height="100"/>
</g></g><g transform="translate(0,180) scale(0.15,0.15)"><g transform="" style="fill: rgb(0, 0, 0);">
<rect width="100" height="100"/>
</g></g><g transform="translate(15,180) scale(0.15,0.15)"><g transform="" style="fill: rgb(0, 0, 0);">
<rect width="100" height="100"/>
</g></g><g transform="translate(30,180) scale(0.15,0.15)"><g transform="" style="fill: rgb(0, 0, 0);">
<g>
	<path d="M100,0H0v100h65.625c9.506,0,17.611-3.354,24.316-10.059S100,75.131,100,65.625V0z"/>
</g>
</g></g><g transform="translate(60,180) scale(0.15,0.15)"><g transform="" style="fill: rgb(0, 0, 0);">
<g>
	<path d="M100,34.375V0H34.375C24.87,0,16.764,3.353,10.059,10.059S0,24.87,0,34.375V100h100V34.375z"/>
</g>
</g></g><g transform="translate(75,180) scale(0.15,0.15)"><g transform="" style="fill: rgb(0, 0, 0);">
<rect width="100" height="100"/>
</g></g><g transform="translate(90,180) scale(0.15,0.15)"><g transform="" style="fill: rgb(0, 0, 0);">
<path d="M26.574,99.999C14.89,99.999,0,100,0,100s0-34.008,0.001-49.953c-0.001-12.453,0-49.953,0-49.953h25.068
	c0,0,64.501-2.101,72.268,13.486C109.354,37.695,54.264,99.999,26.574,99.999z"/>
</g></g><g transform="translate(120,180) scale(0.15,0.15)"><g transform="" style="fill: rgb(0, 0, 0);">
<g>
	<path d="M100,0H0v65.625c0,9.506,3.353,17.611,10.059,24.316S24.87,100,34.375,100H100V0z"/>
</g>
</g></g><g transform="translate(135,180) scale(0.15,0.15)"><g transform="" style="fill: rgb(0, 0, 0);">
<rect width="100" height="100"/>
</g></g><g transform="translate(150,180) scale(0.15,0.15)"><g transform="" style="fill: rgb(0, 0, 0);">
<g>
	<path d="M100,34.375c0-9.505-3.354-17.611-10.059-24.316S75.131,0,65.625,0H0v100h100V34.375z"/>
</g>
</g></g><g transform="translate(225,180) scale(0.15,0.15)"><g transform="" style="fill: rgb(0, 0, 0);">
<g>
	<path d="M100,34.375V0H34.375C24.87,0,16.764,3.353,10.059,10.059S0,24.87,0,34.375V100h100V34.375z"/>
</g>
</g></g><g transform="translate(240,180) scale(0.15,0.15)"><g transform="" style="fill: rgb(0, 0, 0);">
<g>
	<path d="M100,34.375c0-9.505-3.354-17.611-10.059-24.316S75.131,0,65.625,0H0v100h100V34.375z"/>
</g>
</g></g><g transform="translate(270,180) scale(0.15,0.15)"><g transform="" style="fill: rgb(0, 0, 0);">
<path d="M73.425,0.001C85.11,0.001,100,0,100,0s0,34.008-0.001,49.953c0.001,12.452,0,49.952,0,49.952H74.931
	c0,0-65.501,2.1-73.268-13.486C-10.352,62.305,45.736,0.001,73.425,0.001z"/>
</g></g><g transform="translate(285,180) scale(0.15,0.15)"><g transform="" style="fill: rgb(0, 0, 0);">
<g>
	<path d="M100,0H0v100h65.625c9.506,0,17.611-3.354,24.316-10.059S100,75.131,100,65.625V0z"/>
</g>
</g></g><g transform="translate(360,180) scale(0.15,0.15)"><g transform="" style="fill: rgb(0, 0, 0);">
<path d="M0.001,25.574C0.001,13.89,0-1,0-1s34.008,0,49.953,0.001c12.452-0.001,49.952,0,49.952,0v25.068
	c0,0,2.101,65.501-13.486,73.267C62.305,109.353,0.001,53.264,0.001,25.574z"/>
</g></g><g transform="translate(0,195) scale(0.15,0.15)"><g transform="" style="fill: rgb(0, 0, 0);">
<rect width="100" height="100"/>
</g></g><g transform="translate(45,195) scale(0.15,0.15)"><g transform="" style="fill: rgb(0, 0, 0);">
<path d="M73.425,0.001C85.11,0.001,100,0,100,0s0,34.008-0.001,49.953c0.001,12.452,0,49.952,0,49.952H74.931
	c0,0-65.501,2.1-73.268-13.486C-10.352,62.305,45.736,0.001,73.425,0.001z"/>
</g></g><g transform="translate(60,195) scale(0.15,0.15)"><g transform="" style="fill: rgb(0, 0, 0);">
<rect width="100" height="100"/>
</g></g><g transform="translate(75,195) scale(0.15,0.15)"><g transform="" style="fill: rgb(0, 0, 0);">
<g>
	<path d="M100,0H0v100h65.625c9.506,0,17.611-3.354,24.316-10.059S100,75.131,100,65.625V0z"/>
</g>
</g></g><g transform="translate(105,195) scale(0.15,0.15)"><g transform="" style="fill: rgb(0, 0, 0);">
<path d="M99.999,73.426C99.999,85.11,100,100,100,100s-34.008,0-49.953-0.001c-12.452,0.001-49.952,0-49.952,0V74.931
	c0,0-2.101-65.501,13.486-73.267C37.695-10.353,99.999,45.737,99.999,73.426z"/>
</g></g><g transform="translate(135,195) scale(0.15,0.15)"><g transform="" style="fill: rgb(0, 0, 0);">
<rect width="100" height="100"/>
</g></g><g transform="translate(150,195) scale(0.15,0.15)"><g transform="" style="fill: rgb(0, 0, 0);">
<g>
	<path d="M100,0H0v100h65.625c9.506,0,17.611-3.354,24.316-10.059S100,75.131,100,65.625V0z"/>
</g>
</g></g><g transform="translate(180,195) scale(0.15,0.15)"><g transform="" style="fill: rgb(0, 0, 0);">
<path d="M73.425,0.001C85.11,0.001,100,0,100,0s0,34.008-0.001,49.953c0.001,12.452,0,49.952,0,49.952H74.931
	c0,0-65.501,2.1-73.268-13.486C-10.352,62.305,45.736,0.001,73.425,0.001z"/>
</g></g><g transform="translate(195,195) scale(0.15,0.15)"><g transform="" style="fill: rgb(0, 0, 0);">
<rect width="100" height="100"/>
</g></g><g transform="translate(210,195) scale(0.15,0.15)"><g transform="" style="fill: rgb(0, 0, 0);">
<rect width="100" height="100"/>
</g></g><g transform="translate(225,195) scale(0.15,0.15)"><g transform="" style="fill: rgb(0, 0, 0);">
<rect width="100" height="100"/>
</g></g><g transform="translate(240,195) scale(0.15,0.15)"><g transform="" style="fill: rgb(0, 0, 0);">
<g>
	<path d="M100,0H0v100h65.625c9.506,0,17.611-3.354,24.316-10.059S100,75.131,100,65.625V0z"/>
</g>
</g></g><g transform="translate(300,195) scale(0.15,0.15)"><g transform="" style="fill: rgb(0, 0, 0);">
<path d="M99.999,73.426C99.999,85.11,100,100,100,100s-34.008,0-49.953-0.001c-12.452,0.001-49.952,0-49.952,0V74.931
	c0,0-2.101-65.501,13.486-73.267C37.695-10.353,99.999,45.737,99.999,73.426z"/>
</g></g><g transform="translate(345,195) scale(0.15,0.15)"><g transform="" style="fill: rgb(0, 0, 0);">
<path d="M99.999,73.426C99.999,85.11,100,100,100,100s-34.008,0-49.953-0.001c-12.452,0.001-49.952,0-49.952,0V74.931
	c0,0-2.101-65.501,13.486-73.267C37.695-10.353,99.999,45.737,99.999,73.426z"/>
</g></g><g transform="translate(0,210) scale(0.15,0.15)"><g transform="" style="fill: rgb(0, 0, 0);">
<rect width="100" height="100"/>
</g></g><g transform="translate(15,210) scale(0.15,0.15)"><g transform="" style="fill: rgb(0, 0, 0);">
<path d="M26.574,99.999C14.89,99.999,0,100,0,100s0-34.008,0.001-49.953c-0.001-12.453,0-49.953,0-49.953h25.068
	c0,0,64.501-2.101,72.268,13.486C109.354,37.695,54.264,99.999,26.574,99.999z"/>
</g></g><g transform="translate(60,210) scale(0.15,0.15)"><g transform="" style="fill: rgb(0, 0, 0);">
<rect width="100" height="100"/>
</g></g><g transform="translate(90,210) scale(0.15,0.15)"><g transform="" style="fill: rgb(0, 0, 0);">
<path d="M73.425,0.001C85.11,0.001,100,0,100,0s0,34.008-0.001,49.953c0.001,12.452,0,49.952,0,49.952H74.931
	c0,0-65.501,2.1-73.268-13.486C-10.352,62.305,45.736,0.001,73.425,0.001z"/>
</g></g><g transform="translate(105,210) scale(0.15,0.15)"><g transform="" style="fill: rgb(0, 0, 0);">
<rect width="100" height="100"/>
</g></g><g transform="translate(120,210) scale(0.15,0.15)"><g transform="" style="fill: rgb(0, 0, 0);">
<rect width="100" height="100"/>
</g></g><g transform="translate(135,210) scale(0.15,0.15)"><g transform="" style="fill: rgb(0, 0, 0);">
<rect width="100" height="100"/>
</g></g><g transform="translate(225,210) scale(0.15,0.15)"><g transform="" style="fill: rgb(0, 0, 0);">
<path d="M0.001,25.574C0.001,13.89,0-1,0-1s34.008,0,49.953,0.001c12.452-0.001,49.952,0,49.952,0v25.068
	c0,0,2.101,65.501-13.486,73.267C62.305,109.353,0.001,53.264,0.001,25.574z"/>
</g></g><g transform="translate(270,210) scale(0.15,0.15)"><g transform="" style="fill: rgb(0, 0, 0);">
<path d="M99.999,73.426C99.999,85.11,100,100,100,100s-34.008,0-49.953-0.001c-12.452,0.001-49.952,0-49.952,0V74.931
	c0,0-2.101-65.501,13.486-73.267C37.695-10.353,99.999,45.737,99.999,73.426z"/>
</g></g><g transform="translate(300,210) scale(0.15,0.15)"><g transform="" style="fill: rgb(0, 0, 0);">
<g>
	<path d="M100,0H0v65.625c0,9.506,3.353,17.611,10.059,24.316S24.87,100,34.375,100H100V0z"/>
</g>
</g></g><g transform="translate(315,210) scale(0.15,0.15)"><g transform="" style="fill: rgb(0, 0, 0);">
<rect width="100" height="100"/>
</g></g><g transform="translate(330,210) scale(0.15,0.15)"><g transform="" style="fill: rgb(0, 0, 0);">
<rect width="100" height="100"/>
</g></g><g transform="translate(345,210) scale(0.15,0.15)"><g transform="" style="fill: rgb(0, 0, 0);">
<rect width="100" height="100"/>
</g></g><g transform="translate(360,210) scale(0.15,0.15)"><g transform="" style="fill: rgb(0, 0, 0);">
<g>
	<path d="M100,34.375c0-9.505-3.354-17.611-10.059-24.316S75.131,0,65.625,0H0v100h100V34.375z"/>
</g>
</g></g><g transform="translate(0,225) scale(0.15,0.15)"><g transform="" style="fill: rgb(0, 0, 0);">
<rect width="100" height="100"/>
</g></g><g transform="translate(45,225) scale(0.15,0.15)"><g transform="" style="fill: rgb(0, 0, 0);">
<g>
	<path d="M100,34.375V0H34.375C24.87,0,16.764,3.353,10.059,10.059S0,24.87,0,34.375V100h100V34.375z"/>
</g>
</g></g><g transform="translate(60,225) scale(0.15,0.15)"><g transform="" style="fill: rgb(0, 0, 0);">
<rect width="100" height="100"/>
</g></g><g transform="translate(105,225) scale(0.15,0.15)"><g transform="" style="fill: rgb(0, 0, 0);">
<rect width="100" height="100"/>
</g></g><g transform="translate(135,225) scale(0.15,0.15)"><g transform="" style="fill: rgb(0, 0, 0);">
<g>
	<path d="M100,0H0v65.625c0,9.506,3.353,17.611,10.059,24.316S24.87,100,34.375,100H100V0z"/>
</g>
</g></g><g transform="translate(150,225) scale(0.15,0.15)"><g transform="" style="fill: rgb(0, 0, 0);">
<path d="M26.574,99.999C14.89,99.999,0,100,0,100s0-34.008,0.001-49.953c-0.001-12.453,0-49.953,0-49.953h25.068
	c0,0,64.501-2.101,72.268,13.486C109.354,37.695,54.264,99.999,26.574,99.999z"/>
</g></g><g transform="translate(180,225) scale(0.15,0.15)"><g transform="" style="fill: rgb(0, 0, 0);">
<path d="M99.999,73.426C99.999,85.11,100,100,100,100s-34.008,0-49.953-0.001c-12.452,0.001-49.952,0-49.952,0V74.931
	c0,0-2.101-65.501,13.486-73.267C37.695-10.353,99.999,45.737,99.999,73.426z"/>
</g></g><g transform="translate(255,225) scale(0.15,0.15)"><g transform="" style="fill: rgb(0, 0, 0);">
<g>
	<path d="M100,34.375V0H34.375C24.87,0,16.764,3.353,10.059,10.059S0,24.87,0,34.375V100h100V34.375z"/>
</g>
</g></g><g transform="translate(270,225) scale(0.15,0.15)"><g transform="" style="fill: rgb(0, 0, 0);">
<rect width="100" height="100"/>
</g></g><g transform="translate(285,225) scale(0.15,0.15)"><g transform="" style="fill: rgb(0, 0, 0);">
<g>
	<path d="M100,34.375c0-9.505-3.354-17.611-10.059-24.316S75.131,0,65.625,0H0v100h100V34.375z"/>
</g>
</g></g><g transform="translate(315,225) scale(0.15,0.15)"><g transform="" style="fill: rgb(0, 0, 0);">
<g>
	<path d="M100,0H0v65.625c0,9.506,3.353,17.611,10.059,24.316S24.87,100,34.375,100H100V0z"/>
</g>
</g></g><g transform="translate(330,225) scale(0.15,0.15)"><g transform="" style="fill: rgb(0, 0, 0);">
<rect width="100" height="100"/>
</g></g><g transform="translate(360,225) scale(0.15,0.15)"><g transform="" style="fill: rgb(0, 0, 0);">
<path d="M0.001,25.574C0.001,13.89,0-1,0-1s34.008,0,49.953,0.001c12.452-0.001,49.952,0,49.952,0v25.068
	c0,0,2.101,65.501-13.486,73.267C62.305,109.353,0.001,53.264,0.001,25.574z"/>
</g></g><g transform="translate(0,240) scale(0.15,0.15)"><g transform="" style="fill: rgb(0, 0, 0);">
<path d="M0.001,25.574C0.001,13.89,0-1,0-1s34.008,0,49.953,0.001c12.452-0.001,49.952,0,49.952,0v25.068
	c0,0,2.101,65.501-13.486,73.267C62.305,109.353,0.001,53.264,0.001,25.574z"/>
</g></g><g transform="translate(30,240) scale(0.15,0.15)"><g transform="" style="fill: rgb(0, 0, 0);">
<path d="M73.425,0.001C85.11,0.001,100,0,100,0s0,34.008-0.001,49.953c0.001,12.452,0,49.952,0,49.952H74.931
	c0,0-65.501,2.1-73.268-13.486C-10.352,62.305,45.736,0.001,73.425,0.001z"/>
</g></g><g transform="translate(45,240) scale(0.15,0.15)"><g transform="" style="fill: rgb(0, 0, 0);">
<rect width="100" height="100"/>
</g></g><g transform="translate(60,240) scale(0.15,0.15)"><g transform="" style="fill: rgb(0, 0, 0);">
<rect width="100" height="100"/>
</g></g><g transform="translate(75,240) scale(0.15,0.15)"><g transform="" style="fill: rgb(0, 0, 0);">
<rect width="100" height="100"/>
</g></g><g transform="translate(90,240) scale(0.15,0.15)"><g transform="" style="fill: rgb(0, 0, 0);">
<rect width="100" height="100"/>
</g></g><g transform="translate(105,240) scale(0.15,0.15)"><g transform="" style="fill: rgb(0, 0, 0);">
<g>
	<path d="M100,0H0v100h65.625c9.506,0,17.611-3.354,24.316-10.059S100,75.131,100,65.625V0z"/>
</g>
</g></g><g transform="translate(165,240) scale(0.15,0.15)"><g transform="" style="fill: rgb(0, 0, 0);">
<g>
	<path d="M100,34.375V0H34.375C24.87,0,16.764,3.353,10.059,10.059S0,24.87,0,34.375V100h100V34.375z"/>
</g>
</g></g><g transform="translate(180,240) scale(0.15,0.15)"><g transform="" style="fill: rgb(0, 0, 0);">
<rect width="100" height="100"/>
</g></g><g transform="translate(195,240) scale(0.15,0.15)"><g transform="" style="fill: rgb(0, 0, 0);">
<path d="M26.574,99.999C14.89,99.999,0,100,0,100s0-34.008,0.001-49.953c-0.001-12.453,0-49.953,0-49.953h25.068
	c0,0,64.501-2.101,72.268,13.486C109.354,37.695,54.264,99.999,26.574,99.999z"/>
</g></g><g transform="translate(225,240) scale(0.15,0.15)"><g transform="" style="fill: rgb(0, 0, 0);">
<g>
	<path d="M100,34.375V0H34.375C24.87,0,16.764,3.353,10.059,10.059S0,24.87,0,34.375V100h100V34.375z"/>
</g>
</g></g><g transform="translate(240,240) scale(0.15,0.15)"><g transform="" style="fill: rgb(0, 0, 0);">
<rect width="100" height="100"/>
</g></g><g transform="translate(255,240) scale(0.15,0.15)"><g transform="" style="fill: rgb(0, 0, 0);">
<rect width="100" height="100"/>
</g></g><g transform="translate(270,240) scale(0.15,0.15)"><g transform="" style="fill: rgb(0, 0, 0);">
<rect width="100" height="100"/>
</g></g><g transform="translate(285,240) scale(0.15,0.15)"><g transform="" style="fill: rgb(0, 0, 0);">
<rect width="100" height="100"/>
</g></g><g transform="translate(300,240) scale(0.15,0.15)"><g transform="" style="fill: rgb(0, 0, 0);">
<g>
	<path d="M100,34.375c0-9.505-3.354-17.611-10.059-24.316S75.131,0,65.625,0H0v100h100V34.375z"/>
</g>
</g></g><g transform="translate(330,240) scale(0.15,0.15)"><g transform="" style="fill: rgb(0, 0, 0);">
<rect width="100" height="100"/>
</g></g><g transform="translate(345,240) scale(0.15,0.15)"><g transform="" style="fill: rgb(0, 0, 0);">
<g>
	<path d="M100,34.375c0-9.505-3.354-17.611-10.059-24.316S75.131,0,65.625,0H0v100h100V34.375z"/>
</g>
</g></g><g transform="translate(120,255) scale(0.15,0.15)"><g transform="" style="fill: rgb(0, 0, 0);">
<g>
	<path d="M100,34.375V0H34.375C24.87,0,16.764,3.353,10.059,10.059S0,24.87,0,34.375V100h100V34.375z"/>
</g>
</g></g><g transform="translate(135,255) scale(0.15,0.15)"><g transform="" style="fill: rgb(0, 0, 0);">
<g>
	<path d="M100,34.375c0-9.505-3.354-17.611-10.059-24.316S75.131,0,65.625,0H0v100h100V34.375z"/>
</g>
</g></g><g transform="translate(165,255) scale(0.15,0.15)"><g transform="" style="fill: rgb(0, 0, 0);">
<path d="M0.001,25.574C0.001,13.89,0-1,0-1s34.008,0,49.953,0.001c12.452-0.001,49.952,0,49.952,0v25.068
	c0,0,2.101,65.501-13.486,73.267C62.305,109.353,0.001,53.264,0.001,25.574z"/>
</g></g><g transform="translate(225,255) scale(0.15,0.15)"><g transform="" style="fill: rgb(0, 0, 0);">
<g>
	<path d="M100,0H0v65.625c0,9.506,3.353,17.611,10.059,24.316S24.87,100,34.375,100H100V0z"/>
</g>
</g></g><g transform="translate(240,255) scale(0.15,0.15)"><g transform="" style="fill: rgb(0, 0, 0);">
<rect width="100" height="100"/>
</g></g><g transform="translate(300,255) scale(0.15,0.15)"><g transform="" style="fill: rgb(0, 0, 0);">
<rect width="100" height="100"/>
</g></g><g transform="translate(330,255) scale(0.15,0.15)"><g transform="" style="fill: rgb(0, 0, 0);">
<g>
	<path d="M100,0H0v65.625c0,9.506,3.353,17.611,10.059,24.316S24.87,100,34.375,100H100V0z"/>
</g>
</g></g><g transform="translate(345,255) scale(0.15,0.15)"><g transform="" style="fill: rgb(0, 0, 0);">
<g>
	<path d="M100,0H0v100h65.625c9.506,0,17.611-3.354,24.316-10.059S100,75.131,100,65.625V0z"/>
</g>
</g></g><g transform="translate(120,270) scale(0.15,0.15)"><g transform="" style="fill: rgb(0, 0, 0);">
<rect width="100" height="100"/>
</g></g><g transform="translate(135,270) scale(0.15,0.15)"><g transform="" style="fill: rgb(0, 0, 0);">
<g>
	<path d="M100,0H0v100h65.625c9.506,0,17.611-3.354,24.316-10.059S100,75.131,100,65.625V0z"/>
</g>
</g></g><g transform="translate(180,270) scale(0.15,0.15)"><g transform="" style="fill: rgb(0, 0, 0);">
<path d="M73.425,0.001C85.11,0.001,100,0,100,0s0,34.008-0.001,49.953c0.001,12.452,0,49.952,0,49.952H74.931
	c0,0-65.501,2.1-73.268-13.486C-10.352,62.305,45.736,0.001,73.425,0.001z"/>
</g></g><g transform="translate(195,270) scale(0.15,0.15)"><g transform="" style="fill: rgb(0, 0, 0);">
<g>
	<path d="M100,34.375c0-9.505-3.354-17.611-10.059-24.316S75.131,0,65.625,0H0v100h100V34.375z"/>
</g>
</g></g><g transform="translate(240,270) scale(0.15,0.15)"><g transform="" style="fill: rgb(0, 0, 0);">
<rect width="100" height="100"/>
</g></g><g transform="translate(270,270) scale(0.15,0.15)"><g transform="" style="fill: rgb(0, 0, 0);">
<g>
	<path d="M95.338,83.975C120.428,37.136,29.47-30.196,4.645,16.13C-20.399,62.878,70.625,130.076,95.338,83.975"/>
</g>
</g></g><g transform="translate(300,270) scale(0.15,0.15)"><g transform="" style="fill: rgb(0, 0, 0);">
<rect width="100" height="100"/>
</g></g><g transform="translate(360,270) scale(0.15,0.15)"><g transform="" style="fill: rgb(0, 0, 0);">
<g>
	<path d="M95.338,83.975C120.428,37.136,29.47-30.196,4.645,16.13C-20.399,62.878,70.625,130.076,95.338,83.975"/>
</g>
</g></g><g transform="translate(120,285) scale(0.15,0.15)"><g transform="" style="fill: rgb(0, 0, 0);">
<rect width="100" height="100"/>
</g></g><g transform="translate(150,285) scale(0.15,0.15)"><g transform="" style="fill: rgb(0, 0, 0);">
<path d="M73.425,0.001C85.11,0.001,100,0,100,0s0,34.008-0.001,49.953c0.001,12.452,0,49.952,0,49.952H74.931
	c0,0-65.501,2.1-73.268-13.486C-10.352,62.305,45.736,0.001,73.425,0.001z"/>
</g></g><g transform="translate(165,285) scale(0.15,0.15)"><g transform="" style="fill: rgb(0, 0, 0);">
<g>
	<path d="M100,34.375c0-9.505-3.354-17.611-10.059-24.316S75.131,0,65.625,0H0v100h100V34.375z"/>
</g>
</g></g><g transform="translate(195,285) scale(0.15,0.15)"><g transform="" style="fill: rgb(0, 0, 0);">
<rect width="100" height="100"/>
</g></g><g transform="translate(225,285) scale(0.15,0.15)"><g transform="" style="fill: rgb(0, 0, 0);">
<g>
	<path d="M100,34.375V0H34.375C24.87,0,16.764,3.353,10.059,10.059S0,24.87,0,34.375V100h100V34.375z"/>
</g>
</g></g><g transform="translate(240,285) scale(0.15,0.15)"><g transform="" style="fill: rgb(0, 0, 0);">
<rect width="100" height="100"/>
</g></g><g transform="translate(300,285) scale(0.15,0.15)"><g transform="" style="fill: rgb(0, 0, 0);">
<rect width="100" height="100"/>
</g></g><g transform="translate(120,300) scale(0.15,0.15)"><g transform="" style="fill: rgb(0, 0, 0);">
<rect width="100" height="100"/>
</g></g><g transform="translate(165,300) scale(0.15,0.15)"><g transform="" style="fill: rgb(0, 0, 0);">
<path d="M0.001,25.574C0.001,13.89,0-1,0-1s34.008,0,49.953,0.001c12.452-0.001,49.952,0,49.952,0v25.068
	c0,0,2.101,65.501-13.486,73.267C62.305,109.353,0.001,53.264,0.001,25.574z"/>
</g></g><g transform="translate(195,300) scale(0.15,0.15)"><g transform="" style="fill: rgb(0, 0, 0);">
<rect width="100" height="100"/>
</g></g><g transform="translate(225,300) scale(0.15,0.15)"><g transform="" style="fill: rgb(0, 0, 0);">
<rect width="100" height="100"/>
</g></g><g transform="translate(240,300) scale(0.15,0.15)"><g transform="" style="fill: rgb(0, 0, 0);">
<rect width="100" height="100"/>
</g></g><g transform="translate(255,300) scale(0.15,0.15)"><g transform="" style="fill: rgb(0, 0, 0);">
<rect width="100" height="100"/>
</g></g><g transform="translate(270,300) scale(0.15,0.15)"><g transform="" style="fill: rgb(0, 0, 0);">
<rect width="100" height="100"/>
</g></g><g transform="translate(285,300) scale(0.15,0.15)"><g transform="" style="fill: rgb(0, 0, 0);">
<rect width="100" height="100"/>
</g></g><g transform="translate(300,300) scale(0.15,0.15)"><g transform="" style="fill: rgb(0, 0, 0);">
<g>
	<path d="M100,0H0v100h65.625c9.506,0,17.611-3.354,24.316-10.059S100,75.131,100,65.625V0z"/>
</g>
</g></g><g transform="translate(345,300) scale(0.15,0.15)"><g transform="" style="fill: rgb(0, 0, 0);">
<g>
	<path d="M100,34.375V0H34.375C24.87,0,16.764,3.353,10.059,10.059S0,24.87,0,34.375V100h100V34.375z"/>
</g>
</g></g><g transform="translate(360,300) scale(0.15,0.15)"><g transform="" style="fill: rgb(0, 0, 0);">
<g>
	<path d="M100,34.375c0-9.505-3.354-17.611-10.059-24.316S75.131,0,65.625,0H0v100h100V34.375z"/>
</g>
</g></g><g transform="translate(120,315) scale(0.15,0.15)"><g transform="" style="fill: rgb(0, 0, 0);">
<g>
	<path d="M100,0H0v65.625c0,9.506,3.353,17.611,10.059,24.316S24.87,100,34.375,100H100V0z"/>
</g>
</g></g><g transform="translate(135,315) scale(0.15,0.15)"><g transform="" style="fill: rgb(0, 0, 0);">
<g>
	<path d="M100,34.375c0-9.505-3.354-17.611-10.059-24.316S75.131,0,65.625,0H0v100h100V34.375z"/>
</g>
</g></g><g transform="translate(180,315) scale(0.15,0.15)"><g transform="" style="fill: rgb(0, 0, 0);">
<path d="M73.425,0.001C85.11,0.001,100,0,100,0s0,34.008-0.001,49.953c0.001,12.452,0,49.952,0,49.952H74.931
	c0,0-65.501,2.1-73.268-13.486C-10.352,62.305,45.736,0.001,73.425,0.001z"/>
</g></g><g transform="translate(195,315) scale(0.15,0.15)"><g transform="" style="fill: rgb(0, 0, 0);">
<rect width="100" height="100"/>
</g></g><g transform="translate(210,315) scale(0.15,0.15)"><g transform="" style="fill: rgb(0, 0, 0);">
<rect width="100" height="100"/>
</g></g><g transform="translate(225,315) scale(0.15,0.15)"><g transform="" style="fill: rgb(0, 0, 0);">
<rect width="100" height="100"/>
</g></g><g transform="translate(240,315) scale(0.15,0.15)"><g transform="" style="fill: rgb(0, 0, 0);">
<rect width="100" height="100"/>
</g></g><g transform="translate(255,315) scale(0.15,0.15)"><g transform="" style="fill: rgb(0, 0, 0);">
<rect width="100" height="100"/>
</g></g><g transform="translate(270,315) scale(0.15,0.15)"><g transform="" style="fill: rgb(0, 0, 0);">
<g>
	<path d="M100,0H0v100h65.625c9.506,0,17.611-3.354,24.316-10.059S100,75.131,100,65.625V0z"/>
</g>
</g></g><g transform="translate(345,315) scale(0.15,0.15)"><g transform="" style="fill: rgb(0, 0, 0);">
<rect width="100" height="100"/>
</g></g><g transform="translate(360,315) scale(0.15,0.15)"><g transform="" style="fill: rgb(0, 0, 0);">
<rect width="100" height="100"/>
</g></g><g transform="translate(135,330) scale(0.15,0.15)"><g transform="" style="fill: rgb(0, 0, 0);">
<path d="M0.001,25.574C0.001,13.89,0-1,0-1s34.008,0,49.953,0.001c12.452-0.001,49.952,0,49.952,0v25.068
	c0,0,2.101,65.501-13.486,73.267C62.305,109.353,0.001,53.264,0.001,25.574z"/>
</g></g><g transform="translate(165,330) scale(0.15,0.15)"><g transform="" style="fill: rgb(0, 0, 0);">
<path d="M99.999,73.426C99.999,85.11,100,100,100,100s-34.008,0-49.953-0.001c-12.452,0.001-49.952,0-49.952,0V74.931
	c0,0-2.101-65.501,13.486-73.267C37.695-10.353,99.999,45.737,99.999,73.426z"/>
</g></g><g transform="translate(195,330) scale(0.15,0.15)"><g transform="" style="fill: rgb(0, 0, 0);">
<rect width="100" height="100"/>
</g></g><g transform="translate(225,330) scale(0.15,0.15)"><g transform="" style="fill: rgb(0, 0, 0);">
<rect width="100" height="100"/>
</g></g><g transform="translate(300,330) scale(0.15,0.15)"><g transform="" style="fill: rgb(0, 0, 0);">
<g>
	<path d="M100,34.375V0H34.375C24.87,0,16.764,3.353,10.059,10.059S0,24.87,0,34.375V100h100V34.375z"/>
</g>
</g></g><g transform="translate(315,330) scale(0.15,0.15)"><g transform="" style="fill: rgb(0, 0, 0);">
<rect width="100" height="100"/>
</g></g><g transform="translate(330,330) scale(0.15,0.15)"><g transform="" style="fill: rgb(0, 0, 0);">
<rect width="100" height="100"/>
</g></g><g transform="translate(345,330) scale(0.15,0.15)"><g transform="" style="fill: rgb(0, 0, 0);">
<rect width="100" height="100"/>
</g></g><g transform="translate(360,330) scale(0.15,0.15)"><g transform="" style="fill: rgb(0, 0, 0);">
<rect width="100" height="100"/>
</g></g><g transform="translate(150,345) scale(0.15,0.15)"><g transform="" style="fill: rgb(0, 0, 0);">
<g>
	<path d="M100,34.375V0H34.375C24.87,0,16.764,3.353,10.059,10.059S0,24.87,0,34.375V100h100V34.375z"/>
</g>
</g></g><g transform="translate(165,345) scale(0.15,0.15)"><g transform="" style="fill: rgb(0, 0, 0);">
<rect width="100" height="100"/>
</g></g><g transform="translate(180,345) scale(0.15,0.15)"><g transform="" style="fill: rgb(0, 0, 0);">
<rect width="100" height="100"/>
</g></g><g transform="translate(195,345) scale(0.15,0.15)"><g transform="" style="fill: rgb(0, 0, 0);">
<rect width="100" height="100"/>
</g></g><g transform="translate(225,345) scale(0.15,0.15)"><g transform="" style="fill: rgb(0, 0, 0);">
<path d="M0.001,25.574C0.001,13.89,0-1,0-1s34.008,0,49.953,0.001c12.452-0.001,49.952,0,49.952,0v25.068
	c0,0,2.101,65.501-13.486,73.267C62.305,109.353,0.001,53.264,0.001,25.574z"/>
</g></g><g transform="translate(255,345) scale(0.15,0.15)"><g transform="" style="fill: rgb(0, 0, 0);">
<path d="M99.999,73.426C99.999,85.11,100,100,100,100s-34.008,0-49.953-0.001c-12.452,0.001-49.952,0-49.952,0V74.931
	c0,0-2.101-65.501,13.486-73.267C37.695-10.353,99.999,45.737,99.999,73.426z"/>
</g></g><g transform="translate(285,345) scale(0.15,0.15)"><g transform="" style="fill: rgb(0, 0, 0);">
<path d="M73.425,0.001C85.11,0.001,100,0,100,0s0,34.008-0.001,49.953c0.001,12.452,0,49.952,0,49.952H74.931
	c0,0-65.501,2.1-73.268-13.486C-10.352,62.305,45.736,0.001,73.425,0.001z"/>
</g></g><g transform="translate(300,345) scale(0.15,0.15)"><g transform="" style="fill: rgb(0, 0, 0);">
<g>
	<path d="M100,0H0v100h65.625c9.506,0,17.611-3.354,24.316-10.059S100,75.131,100,65.625V0z"/>
</g>
</g></g><g transform="translate(330,345) scale(0.15,0.15)"><g transform="" style="fill: rgb(0, 0, 0);">
<g>
	<path d="M100,0H0v65.625c0,9.506,3.353,17.611,10.059,24.316S24.87,100,34.375,100H100V0z"/>
</g>
</g></g><g transform="translate(345,345) scale(0.15,0.15)"><g transform="" style="fill: rgb(0, 0, 0);">
<rect width="100" height="100"/>
</g></g><g transform="translate(360,345) scale(0.15,0.15)"><g transform="" style="fill: rgb(0, 0, 0);">
<rect width="100" height="100"/>
</g></g><g transform="translate(120,360) scale(0.15,0.15)"><g transform="" style="fill: rgb(0, 0, 0);">
<g>
	<path d="M95.338,83.975C120.428,37.136,29.47-30.196,4.645,16.13C-20.399,62.878,70.625,130.076,95.338,83.975"/>
</g>
</g></g><g transform="translate(150,360) scale(0.15,0.15)"><g transform="" style="fill: rgb(0, 0, 0);">
<g>
	<path d="M100,0H0v65.625c0,9.506,3.353,17.611,10.059,24.316S24.87,100,34.375,100H100V0z"/>
</g>
</g></g><g transform="translate(165,360) scale(0.15,0.15)"><g transform="" style="fill: rgb(0, 0, 0);">
<rect width="100" height="100"/>
</g></g><g transform="translate(180,360) scale(0.15,0.15)"><g transform="" style="fill: rgb(0, 0, 0);">
<rect width="100" height="100"/>
</g></g><g transform="translate(195,360) scale(0.15,0.15)"><g transform="" style="fill: rgb(0, 0, 0);">
<g>
	<path d="M100,0H0v100h65.625c9.506,0,17.611-3.354,24.316-10.059S100,75.131,100,65.625V0z"/>
</g>
</g></g><g transform="translate(240,360) scale(0.15,0.15)"><g transform="" style="fill: rgb(0, 0, 0);">
<path d="M73.425,0.001C85.11,0.001,100,0,100,0s0,34.008-0.001,49.953c0.001,12.452,0,49.952,0,49.952H74.931
	c0,0-65.501,2.1-73.268-13.486C-10.352,62.305,45.736,0.001,73.425,0.001z"/>
</g></g><g transform="translate(255,360) scale(0.15,0.15)"><g transform="" style="fill: rgb(0, 0, 0);">
<g>
	<path d="M100,0H0v100h65.625c9.506,0,17.611-3.354,24.316-10.059S100,75.131,100,65.625V0z"/>
</g>
</g></g><g transform="translate(315,360) scale(0.15,0.15)"><g transform="" style="fill: rgb(0, 0, 0);">
<g>
	<path d="M95.338,83.975C120.428,37.136,29.47-30.196,4.645,16.13C-20.399,62.878,70.625,130.076,95.338,83.975"/>
</g>
</g></g><g transform="translate(360,360) scale(0.15,0.15)"><g transform="" style="fill: rgb(0, 0, 0);">
<path d="M0.001,25.574C0.001,13.89,0-1,0-1s34.008,0,49.953,0.001c12.452-0.001,49.952,0,49.952,0v25.068
	c0,0,2.101,65.501-13.486,73.267C62.305,109.353,0.001,53.264,0.001,25.574z"/>
</g></g><g transform="translate(0,0) scale(1.05, 1.05)"><g transform="" style="fill: rgb(0, 0, 0);">
<g>
	<rect x="15" y="15" style="fill:none;" width="70" height="70"/>
	<path d="M85,0H15H0v15v70v15h15h70h15V85V15V0H85z M85,85H15V15h70V85z"/>
</g>
</g></g><g transform="translate(270,0) scale(1.05, 1.05)"><g transform="" style="fill: rgb(0, 0, 0);">
<g>
	<rect x="15" y="15" style="fill:none;" width="70" height="70"/>
	<path d="M85,0H15H0v15v70v15h15h70h15V85V15V0H85z M85,85H15V15h70V85z"/>
</g>
</g></g><g transform="translate(0,270) scale(1.05, 1.05)"><g transform="" style="fill: rgb(0, 0, 0);">
<g>
	<rect x="15" y="15" style="fill:none;" width="70" height="70"/>
	<path d="M85,0H15H0v15v70v15h15h70h15V85V15V0H85z M85,85H15V15h70V85z"/>
</g>
</g></g><g transform="translate(30,30) scale(0.45, 0.45)"><g transform="" style="fill: rgb(0, 0, 0);">
<rect width="100" height="100"/>
</g></g><g transform="translate(300,30) scale(0.45, 0.45)"><g transform="" style="fill: rgb(0, 0, 0);">
<rect width="100" height="100"/>
</g></g><g transform="translate(30,300) scale(0.45, 0.45)"><g transform="" style="fill: rgb(0, 0, 0);">
<rect width="100" height="100"/>
</g></g></g></svg>