<?xml version="1.0" encoding="utf-8"?>
<!-- Generator: Adobe Illustrator 22.1.0, SVG Export Plug-In . SVG Version: 6.00 Build 0)  -->
<svg version="1.1" id="Capa_1" xmlns="http://www.w3.org/2000/svg" xmlns:xlink="http://www.w3.org/1999/xlink" x="0px" y="0px"
	 viewBox="0 0 150 150" style="enable-background:new 0 0 150 150;" xml:space="preserve">
<g>
	<g>
		<path d="M25.3,57.6h3.6l-2,9.9h0.1l9.6-9.9h4l-8.1,8.7l4.9,13.1h-3.8l-3.8-10.9l-3.9,4l-1.4,6.9H21L25.3,57.6z"/>
		<path d="M44.1,57.6h3.6l-2.4,12.2c-0.2,0.9-0.3,1.8-0.3,2.6c0,2.8,1.1,4.3,3.9,4.3c2.3,0,4-1.7,4.9-6.1l2.6-13h3.5l-2.6,13
			c-1.3,6.5-4.2,9.2-8.5,9.2c-4.8,0-7.3-2.4-7.3-7.3c0-0.9,0.2-2.2,0.4-3.3L44.1,57.6z"/>
		<path d="M65.3,57.6h3.5l4.3,12.7l1.3,4.7h0.1c0.3-2.2,0.5-5,0.9-7.4l2-9.9h3.4l-4.4,21.8H73l-4.2-12.6l-1.3-4.8h-0.1
			c-0.3,2.3-0.5,5-1,7.4l-2,10h-3.4L65.3,57.6z"/>
		<path d="M96.2,57.6h4.2l2.4,21.8h-3.8l-0.8-12.2c-0.1-2.2-0.3-4.4-0.4-6.8h-0.1c-1.1,2.4-2,4.5-3.2,6.8l-6,12.2h-4L96.2,57.6z
			 M90.7,70.6h9.8l-0.6,2.8h-9.8L90.7,70.6z"/>
		<path d="M109.6,57.6h3.6l-4.4,21.8h-3.6L109.6,57.6z"/>
	</g>
	<path d="M102,70.7l-14.6-0.9c-0.8-1.3-2.2-2.2-3.8-2.2c-2.4,0-4.4,2-4.4,4.4s2,4.4,4.4,4.4c1.6,0,3.1-0.9,3.8-2.2l14.6-0.9
		c0,0,6.1,4.3,6.5,4.3c0.4,0,25.7-4.9,25.7-4.9s0.9-0.1,0.9-0.6c0-0.5-0.9-0.6-0.9-0.6s-25.2-4.9-25.7-4.9
		C108.1,66.4,102,70.7,102,70.7z M81.7,72c0-1.1,0.9-1.9,1.9-1.9c1.1,0,1.9,0.9,1.9,1.9s-0.9,1.9-1.9,1.9C82.6,73.9,81.7,73,81.7,72
		z"/>
</g>
</svg>
