<svg width="20" height="23" viewBox="0 0 20 23" fill="none" xmlns="http://www.w3.org/2000/svg">
<path d="M9.99998 11.304C12.8454 11.304 15.152 8.9974 15.152 6.15202C15.152 3.30664 12.8454 1 9.99998 1C7.1546 1 4.84796 3.30664 4.84796 6.15202C4.84796 8.9974 7.1546 11.304 9.99998 11.304Z" stroke="black" stroke-width="2"/>
<path d="M15.152 13.3648H15.5147C16.268 13.3651 16.9953 13.6403 17.56 14.139C18.1246 14.6376 18.4878 15.3252 18.5812 16.0727L18.9841 19.2917C19.0203 19.5817 18.9945 19.8761 18.9083 20.1553C18.822 20.4345 18.6774 20.6922 18.484 20.9113C18.2905 21.1304 18.0527 21.3058 17.7863 21.4259C17.5199 21.546 17.231 21.6081 16.9387 21.6081H3.06126C2.76902 21.6081 2.4801 21.546 2.21369 21.4259C1.94728 21.3058 1.70947 21.1304 1.51604 20.9113C1.3226 20.6922 1.17797 20.4345 1.09175 20.1553C1.00552 19.8761 0.979667 19.5817 1.01591 19.2917L1.41776 16.0727C1.51122 15.3249 1.87466 14.637 2.43975 14.1383C3.00484 13.6396 3.73265 13.3645 4.48631 13.3648H4.84798" stroke="black" stroke-width="2" stroke-linecap="round" stroke-linejoin="round"/>
</svg>
