<svg width="20" height="22" viewBox="0 0 20 22" fill="none" xmlns="http://www.w3.org/2000/svg">
<path d="M18.375 5.46875H14.6562V5.03125C14.6562 2.25312 12.4031 0 9.625 0C6.84688 0 4.59375 2.25312 4.59375 5.03125V5.46875H0.875C0.391016 5.46875 0 5.85977 0 6.34375V21C0 21.484 0.391016 21.875 0.875 21.875H18.375C18.859 21.875 19.25 21.484 19.25 21V6.34375C19.25 5.85977 18.859 5.46875 18.375 5.46875ZM6.5625 5.03125C6.5625 3.33867 7.93242 1.96875 9.625 1.96875C11.3176 1.96875 12.6875 3.33867 12.6875 5.03125V5.46875H6.5625V5.03125ZM17.2812 19.9062H1.96875V7.4375H4.59375V9.84375C4.59375 9.96406 4.69219 10.0625 4.8125 10.0625H6.34375C6.46406 10.0625 6.5625 9.96406 6.5625 9.84375V7.4375H12.6875V9.84375C12.6875 9.96406 12.7859 10.0625 12.9062 10.0625H14.4375C14.5578 10.0625 14.6562 9.96406 14.6562 9.84375V7.4375H17.2812V19.9062Z" fill="black"/>
</svg>
